HIERARCHY
ROOT Hips
{
  OFFSET 48.3305 99.1266 34.9327
  CHANNELS 6 Xposition Yposition Zposition Zrotation Xrotation Yrotation
  JOINT spine
  {
    OFFSET 0 8.30104 0.477351
    CHANNELS 3 Zrotation Xrotation Yrotation
    JOINT spine1
    {
      OFFSET 0 10.4565 0
      CHANNELS 3 Zrotation Xrotation Yrotation
      JOINT spine2
      {
        OFFSET 0 10.0192 0
        CHANNELS 3 Zrotation Xrotation Yrotation
        JOINT Neck
        {
          OFFSET 0 25.7235 1.22641
          CHANNELS 3 Zrotation Xrotation Yrotation
          JOINT Head
          {
            OFFSET 0 7.77175 0
            CHANNELS 3 Zrotation Xrotation Yrotation
            End Site
            {
              OFFSET 0 18.812 -6.20394
            }
          }
        }
        JOINT RightShoulder
        {
          OFFSET -4.2188 10.82 -0.587439
          CHANNELS 3 Zrotation Xrotation Yrotation
          JOINT RightArm
          {
            OFFSET 0 14.1914 0
            CHANNELS 3 Zrotation Xrotation Yrotation
            JOINT RightArmRoll
            {
              OFFSET 0 7.16408 0
              CHANNELS 3 Zrotation Xrotation Yrotation
              JOINT RightForeArm
              {
                OFFSET 0 20.8665 0
                CHANNELS 3 Zrotation Xrotation Yrotation
                JOINT RightForeArmRoll
                {
                  OFFSET 0 8.03921 0
                  CHANNELS 3 Zrotation Xrotation Yrotation
                  JOINT RightHand
                  {
                    OFFSET 0 16.133 0
                    CHANNELS 3 Zrotation Xrotation Yrotation
                    End Site
                    {
                      OFFSET 0 0 0
                    }
                  }
                }
              }
            }
          }
        }
        JOINT LeftShoulder
        {
          OFFSET 4.2188 10.82 -0.587439
          CHANNELS 3 Zrotation Xrotation Yrotation
          JOINT LeftArm
          {
            OFFSET 0 14.1914 0
            CHANNELS 3 Zrotation Xrotation Yrotation
            JOINT LeftArmRoll
            {
              OFFSET 0 7.16408 0
              CHANNELS 3 Zrotation Xrotation Yrotation
              JOINT LeftForeArm
              {
                OFFSET 0 20.8665 0
                CHANNELS 3 Zrotation Xrotation Yrotation
                JOINT LeftForeArmRoll
                {
                  OFFSET 0 8.03921 0
                  CHANNELS 3 Zrotation Xrotation Yrotation
                  JOINT LeftHand
                  {
                    OFFSET 0 16.133 0
                    CHANNELS 3 Zrotation Xrotation Yrotation
                    End Site
                    {
                      OFFSET 0 0 0
                    }
                  }
                }
              }
            }
          }
        }
      }
    }
  }
  JOINT RightUpLeg
  {
    OFFSET -7.35773 -1.34921 -1.13182
    CHANNELS 3 Zrotation Xrotation Yrotation
    JOINT RightUpLegRoll
    {
      OFFSET 0 18.9168 0
      CHANNELS 3 Zrotation Xrotation Yrotation
      JOINT RightLeg
      {
        OFFSET 0 -23.4256 0
        CHANNELS 3 Zrotation Xrotation Yrotation
        JOINT RightLegRoll
        {
          OFFSET 0 23.5023 0
          CHANNELS 3 Zrotation Xrotation Yrotation
          JOINT RightFoot
          {
            OFFSET 0 19.5617 0
            CHANNELS 3 Zrotation Xrotation Yrotation
            JOINT RightToeBase
            {
              OFFSET 0 16.3526 0
              CHANNELS 3 Zrotation Xrotation Yrotation
              End Site
              {
                OFFSET 0.00693125 7.91943 -0.912837
              }
            }
          }
        }
      }
    }
  }
  JOINT LeftUpLeg
  {
    OFFSET 7.35773 -1.34921 -1.13182
    CHANNELS 3 Zrotation Xrotation Yrotation
    JOINT LeftUpLegRoll
    {
      OFFSET 0 18.9169 0
      CHANNELS 3 Zrotation Xrotation Yrotation
      JOINT LeftLeg
      {
        OFFSET 0 23.4255 0
        CHANNELS 3 Zrotation Xrotation Yrotation
        JOINT LeftLegRoll
        {
          OFFSET 0 23.7195 0
          CHANNELS 3 Zrotation Xrotation Yrotation
          JOINT LeftFoot
          {
            OFFSET 0 19.3444 0
            CHANNELS 3 Zrotation Xrotation Yrotation
            JOINT LeftToeBase
            {
              OFFSET 0 16.3526 0
              CHANNELS 3 Zrotation Xrotation Yrotation
              End Site
              {
                OFFSET -0.0310629 7.91943 -0.912837
              }
            }
          }
        }
      }
    }
  }
}
MOTION
Frames: 8
Frame Time: 0.00208333
49.6642 55.3388 -2.80506 0.123173 -27.1382 5.92546 0.905216 3.0721 -0.849383 1.88579 10.1314 -1.87116 1.91501 11.7756 -1.90737 -6.17816 26.805 0.0694347 3.17069 -9.59167 -1.68935 66.9857 -1.6438 -1.84852 100.373 11.0764 -12.1803 -8.34896e-015 -3.18055e-015 -6.36111e-015 38.4764 75.7399 -35.2973 -7.67762e-007 2.81228e-006 -3.00631 8.02919 -4.95091 0.697485 -68.7126 4.58397 -1.09722 -95.9799 7.65232 6.45105 -8.15017e-015 1.59028e-015 -4.77083e-015 -21.2501 69.1761 17.7829 4.94736e-006 7.78457e-007 2.99998 -8.02934 -4.95114 -0.697582 138.869 53.1298 46.9953 180 1.52531e-005 178.438 -22.6282 84.5441 22.395 1.59745e-006 7.66181e-007 1.98963 -27.4741 69.7314 21.4839 8.13085 25.234 -3.48253 -149.365 59.7205 -35.1399 4.5067e-006 -1.99009e-005 -1.95188 150.27 -81.9355 146.893 5.41965e-008 -5.43316e-006 -2.45839 28.5387 70.7651 -22.784 -8.16745 25.7151 3.49264 
49.663 55.3527 -2.83495 0.118676 -27.1256 5.93636 0.909211 3.08226 -0.850827 1.89513 10.1516 -1.875 1.92445 11.7958 -1.91143 -6.23882 26.7344 0.081845 3.21163 -9.57736 -1.68896 66.9003 -1.66526 -1.85166 100.462 11.0659 -12.2511 2.62396e-014 1.59028e-015 3.18055e-015 38.5633 75.8183 -35.4219 -7.67762e-007 2.81228e-006 -3.00631 8.02919 -4.95091 0.697485 -68.711 4.56647 -1.0888 -95.9854 7.68307 6.51911 1.03368e-014 0 1.59028e-015 -21.2713 69.2621 17.8276 4.94736e-006 7.78457e-007 2.99998 -8.02934 -4.95114 -0.697582 138.906 53.1525 46.9562 180 1.52531e-005 178.438 -22.811 84.5673 22.572 1.59745e-006 7.66181e-007 1.98833 -27.4217 69.7092 21.4558 8.13085 25.234 -3.48253 -149.434 59.7563 -35.0585 4.5067e-006 -1.99009e-005 -1.95225 150.143 -81.9454 146.757 5.41965e-008 -5.43316e-006 -2.4569 28.4681 70.7314 -22.7364 -8.16854 25.7308 3.49382 
49.6702 55.3588 -2.84867 0.113808 -27.1125 5.94705 0.913441 3.09207 -0.852287 1.90496 10.1711 -1.87889 1.93437 11.8153 -1.91555 -6.30398 26.665 0.095469 3.25568 -9.56328 -1.68851 66.8099 -1.68703 -1.85452 100.557 11.0547 -12.3214 2.38542e-015 0 -1.59028e-015 38.6484 75.8952 -35.5443 -7.67762e-007 2.81228e-006 -3.00631 8.02919 -4.95091 0.697485 -68.7112 4.54958 -1.08041 -95.9902 7.71303 6.58697 -2.36554e-014 6.36111e-015 -6.36111e-015 -21.2932 69.3483 17.8731 4.94736e-006 7.78457e-007 2.99998 -8.02934 -4.95114 -0.697582 138.943 53.1752 46.9174 180 1.52531e-005 178.438 -22.9929 84.5905 22.7475 1.59745e-006 7.66181e-007 1.98706 -27.3704 69.6871 21.428 8.13085 25.234 -3.48253 -149.502 59.7922 -34.9778 4.5067e-006 -1.99009e-005 -1.95256 150.017 -81.9554 146.621 5.41965e-008 -5.43316e-006 -2.45539 28.398 70.6979 -22.6894 -8.16961 25.7463 3.49502 
49.6712 55.3607 -2.86348 0.108679 -27.0992 5.95761 0.917834 3.10165 -0.853757 1.91512 10.1901 -1.88283 1.94462 11.8343 -1.91972 -6.37227 26.5965 0.109937 3.30189 -9.54936 -1.68802 66.7162 -1.70903 -1.85716 100.657 11.043 -12.3914 8.34896e-015 0 1.59028e-015 38.7327 75.9711 -35.6658 -7.67762e-007 2.81228e-006 -3.00631 8.02919 -4.95091 0.697485 -68.7125 4.53312 -1.07205 -95.9947 7.74241 6.65469 -7.35503e-015 1.59028e-015 -4.77083e-015 -21.3159 69.4347 17.9192 4.94736e-006 7.78457e-007 2.99998 -8.02934 -4.95114 -0.697582 138.979 53.1979 46.8789 180 1.52531e-005 178.438 -23.1747 84.6138 22.9223 1.59745e-006 7.66181e-007 1.98581 -27.32 69.6651 21.4003 8.13085 25.234 -3.48253 -149.57 59.8281 -34.8976 4.5067e-006 -1.99009e-005 -1.95284 149.891 -81.9654 146.487 5.41965e-008 -5.43316e-006 -2.45388 28.3284 70.6645 -22.6427 -8.17068 25.7617 3.49624 
49.6732 55.358 -2.87596 0.103399 -27.0857 5.96808 0.922322 3.1111 -0.855233 1.92547 10.2089 -1.88678 1.95507 11.853 -1.92391 -6.44234 26.5283 0.124878 3.34935 -9.53554 -1.68751 66.6205 -1.73115 -1.8597 100.759 11.0311 -12.4612 -3.97569e-015 1.59028e-015 -1.59028e-015 38.8171 76.0463 -35.7872 -7.67762e-007 2.81228e-006 -3.00631 8.02919 -4.95091 0.697485 -68.7146 4.5169 -1.06371 -95.9989 7.77146 6.72234 -1.23246e-014 1.59028e-015 -3.18055e-015 -21.3391 69.5211 17.966 4.94736e-006 7.78457e-007 2.99998 -8.02934 -4.95114 -0.697582 139.016 53.2205 46.8405 180 1.52531e-005 178.438 -23.3569 84.6371 23.0973 1.59745e-006 7.66181e-007 1.98457 -27.2701 69.6432 21.3728 8.13085 25.234 -3.48253 -149.637 59.864 -34.8176 4.5067e-006 -1.99009e-005 -1.95311 149.765 -81.9755 146.352 5.41966e-008 -5.43316e-006 -2.45236 28.2592 70.6314 -22.5964 -8.17174 25.7771 3.49747 
49.6731 55.3583 -2.88681 0.0980761 -27.0722 5.97852 0.926833 3.12051 -0.856711 1.93588 10.2276 -1.89074 1.96557 11.8717 -1.92811 -6.51282 26.4603 0.139924 3.39712 -9.52173 -1.687 66.5243 -1.7533 -1.8622 100.862 11.019 -12.5309 -3.97569e-016 0 -1.59028e-015 38.9024 76.1213 -35.9095 -7.67762e-007 2.81228e-006 -3.00631 8.02919 -4.95091 0.697485 -68.7168 4.50074 -1.05538 -96.0032 7.80041 6.78998 8.15017e-015 -1.59028e-015 1.59028e-015 -21.3627 69.6076 18.0132 4.94736e-006 7.78457e-007 2.99998 -8.02934 -4.95114 -0.697582 139.053 53.2431 46.8021 180 1.52531e-005 178.438 -23.5404 84.6603 23.2736 1.59745e-006 7.66181e-007 1.98334 -27.2203 69.6212 21.3454 8.13085 25.234 -3.48253 -149.704 59.8999 -34.7376 4.5067e-006 -1.99009e-005 -1.95336 149.639 -81.9855 146.218 5.41965e-008 -5.43316e-006 -2.45084 28.1901 70.5982 -22.5503 -8.1728 25.7924 3.49871 
49.6761 55.3686 -2.90972 0.0928217 -27.0587 5.98901 0.931298 3.12998 -0.858186 1.94619 10.2464 -1.89469 1.97598 11.8906 -1.9323 -6.58236 26.3921 0.154708 3.44427 -9.50788 -1.68649 66.4291 -1.77539 -1.86476 100.963 11.0071 -12.6007 -8.34896e-015 -4.77083e-015 -3.18055e-015 38.9898 76.1965 -36.034 -7.67762e-007 2.81228e-006 -3.00631 8.02919 -4.95091 0.697485 -68.7186 4.48446 -1.04703 -96.0076 7.8295 6.85767 4.57205e-015 -1.59028e-015 -1.59028e-015 -21.3867 69.6939 18.0607 4.94736e-006 7.78457e-007 2.99998 -8.02934 -4.95114 -0.697582 139.09 53.2656 46.7636 180 1.52531e-005 178.438 -23.726 84.6835 23.4521 1.59745e-006 7.66181e-007 1.9821 -27.1705 69.5993 21.318 8.13085 25.234 -3.48253 -149.771 59.9356 -34.6572 4.5067e-006 -1.99009e-005 -1.95363 149.513 -81.9954 146.082 5.41965e-008 -5.43316e-006 -2.44932 28.1212 70.5649 -22.5042 -8.17386 25.8077 3.49994 
49.6393 55.416 -2.92999 0.0877439 -27.0454 5.99959 0.935647 3.13963 -0.859653 1.95626 10.2656 -1.89861 1.98615 11.9097 -1.93646 -6.64959 26.3233 0.168862 3.48986 -9.49392 -1.68601 66.3363 -1.79732 -1.86747 101.062 10.9955 -12.6707 1.03368e-014 3.18055e-015 -1.59028e-015 39.0802 76.2724 -36.1617 -7.67762e-007 2.81228e-006 -3.00631 8.02919 -4.95091 0.697485 -68.7196 4.46787 -1.03867 -96.0125 7.85897 6.92547 -8.54774e-015 3.18055e-015 -3.18055e-015 -21.4109 69.7802 18.1085 4.94736e-006 7.78457e-007 2.99998 -8.02934 -4.95114 -0.697582 139.126 53.2882 46.7248 180 1.52531e-005 178.438 -23.9145 84.7065 23.6337 1.59745e-006 7.66181e-007 1.98085 -27.1201 69.5772 21.2906 8.13085 25.234 -3.48253 -149.84 59.9714 -34.5762 4.5067e-006 -1.99009e-005 -1.95392 149.385 -82.0052 145.946 5.41965e-008 -5.43316e-006 -2.44781 28.0522 70.5315 -22.4582 -8.17493 25.8231 3.50116 
